<?xml version="1.0" standalone="no"?>
<!DOCTYPE svg PUBLIC "-//W3C//DTD SVG 20010904//EN"
 "http://www.w3.org/TR/2001/REC-SVG-20010904/DTD/svg10.dtd">
<svg version="1.0" xmlns="http://www.w3.org/2000/svg"
 width="512.000000pt" height="512.000000pt" viewBox="0 0 512.000000 512.000000"
 preserveAspectRatio="xMidYMid meet">

<g transform="translate(0.000000,512.000000) scale(0.100000,-0.100000)"
fill="#000000" stroke="none">
<path d="M997 4804 c-345 -173 -626 -318 -623 -322 2 -4 287 -148 633 -321
l628 -313 635 317 635 318 -635 318 c-349 175 -637 318 -640 318 -3 0 -288
-142 -633 -315z m739 -213 c111 -50 112 -156 2 -212 -61 -31 -179 -25 -235 13
-86 57 -76 145 20 193 63 31 152 34 213 6z"/>
<path d="M262 3509 l3 -842 630 -308 c346 -170 635 -307 642 -304 10 3 13 174
13 830 l0 825 -640 320 c-352 176 -642 320 -645 320 -3 0 -4 -379 -3 -841z
m242 557 c70 -29 126 -132 126 -233 0 -90 -34 -133 -104 -133 -94 0 -188 171
-157 287 12 42 59 93 87 93 8 0 29 -6 48 -14z m451 -677 c131 -121 101 -370
-40 -335 -43 11 -99 74 -123 139 -48 127 -8 237 85 237 25 0 45 -10 78 -41z
m382 -724 c34 -23 79 -98 93 -156 49 -202 -136 -277 -226 -93 -67 137 -26 287
75 270 18 -3 44 -12 58 -21z"/>
<path d="M2355 4027 l-640 -322 -3 -732 c-1 -403 1 -733 6 -733 4 0 33 26 65
58 l57 58 -9 51 c-26 134 82 299 180 278 26 -6 61 -38 72 -68 3 -7 176 159
386 368 l380 379 69 -22 c38 -12 74 -22 80 -22 9 0 12 126 12 515 0 283 -3
515 -7 514 -5 0 -296 -145 -648 -322z m533 19 c67 -66 38 -234 -53 -314 -38
-34 -87 -42 -126 -22 -52 29 -67 150 -29 237 51 117 145 161 208 99z m-840
-401 c75 -63 52 -240 -42 -322 -59 -53 -129 -44 -162 20 -50 95 12 269 111
313 43 19 60 17 93 -11z m439 -250 c33 -23 57 -96 50 -150 -14 -101 -78 -195
-144 -211 -68 -17 -123 44 -123 137 0 151 130 285 217 224z"/>
<path d="M3286 2478 l224 -673 668 -223 c367 -122 670 -222 674 -222 9 0 -432
1322 -446 1336 -6 7 -306 110 -666 229 -360 120 -660 220 -667 222 -7 3 89
-298 213 -669z m720 -57 c82 -37 145 -124 146 -201 1 -77 -54 -116 -137 -98
-147 32 -244 236 -142 298 40 25 80 25 133 1z"/>
<path d="M2301 2536 l-595 -595 229 -668 c125 -367 231 -674 234 -680 4 -8
230 211 596 577 l590 590 -228 685 c-126 377 -229 685 -230 685 -1 0 -269
-267 -596 -594z m530 198 c47 -43 48 -131 1 -224 -63 -126 -197 -163 -238 -65
-29 70 -5 169 60 242 63 72 130 89 177 47z m-392 -1419 c52 -51 34 -183 -37
-266 -83 -97 -184 -92 -212 10 -25 92 43 230 135 272 47 22 80 17 114 -16z"/>
<path d="M2877 1052 l-587 -587 677 -232 678 -233 592 592 c326 326 589 595
585 599 -8 8 -1332 449 -1347 449 -6 0 -274 -264 -598 -588z m758 368 c46 -43
23 -135 -46 -189 -72 -56 -188 -77 -249 -46 -41 21 -56 72 -35 122 23 54 51
81 120 115 51 25 70 29 122 26 49 -3 68 -9 88 -28z m415 -138 c93 -46 50 -177
-78 -238 -184 -89 -319 39 -182 172 75 73 188 102 260 66z m448 -149 c82 -51
34 -175 -92 -234 -149 -70 -283 2 -222 119 57 108 226 170 314 115z m-1598
-408 c57 -29 66 -89 24 -151 -33 -48 -46 -59 -109 -89 -92 -45 -199 -29 -225
35 -11 26 -10 37 4 75 41 105 212 178 306 130z m440 -154 c41 -21 55 -54 46
-102 -19 -104 -198 -198 -298 -156 -120 50 -65 200 95 257 67 25 113 25 157 1z
m461 -160 c33 -34 37 -66 13 -117 -47 -100 -215 -165 -304 -119 -72 37 -67
117 12 192 49 47 112 71 186 72 57 1 66 -2 93 -28z"/>
</g>
</svg>
