<?xml version="1.0" standalone="no"?>
<!DOCTYPE svg PUBLIC "-//W3C//DTD SVG 20010904//EN"
 "http://www.w3.org/TR/2001/REC-SVG-20010904/DTD/svg10.dtd">
<svg version="1.0" xmlns="http://www.w3.org/2000/svg"
 width="512.000000pt" height="512.000000pt" viewBox="0 0 512.000000 512.000000"
 preserveAspectRatio="xMidYMid meet">

<g transform="translate(0.000000,512.000000) scale(0.100000,-0.100000)"
fill="#000000" stroke="none">
<path d="M345 5106 c-84 -21 -147 -57 -210 -121 -65 -65 -105 -137 -124 -223
-16 -75 -16 -1909 0 -1984 37 -172 175 -310 347 -347 74 -15 1909 -16 1984 0
170 36 311 178 347 347 15 74 15 1910 0 1984 -36 169 -177 311 -347 347 -80
17 -1929 14 -1997 -3z m475 -606 c45 -23 80 -80 80 -130 0 -76 -74 -150 -151
-150 -46 0 -108 39 -130 82 -37 72 -14 151 57 194 48 29 92 30 144 4z m1200 0
c45 -23 80 -80 80 -130 0 -76 -74 -150 -151 -150 -46 0 -108 39 -130 82 -37
72 -14 151 57 194 48 29 92 30 144 4z m-1200 -1200 c45 -23 80 -80 80 -130 0
-76 -74 -150 -151 -150 -46 0 -108 39 -130 82 -37 72 -14 151 57 194 48 29 92
30 144 4z m1200 0 c45 -23 80 -80 80 -130 0 -76 -74 -150 -151 -150 -46 0
-108 39 -130 82 -37 72 -14 151 57 194 48 29 92 30 144 4z"/>
<path d="M3035 3361 l-30 -6 -6 -310 c-7 -329 -11 -359 -63 -476 -58 -129
-161 -249 -276 -324 -133 -86 -231 -115 -414 -124 l-129 -6 -164 -270 c-89
-148 -170 -290 -179 -315 -8 -25 -18 -79 -21 -120 -10 -138 41 -266 143 -359
28 -25 215 -145 415 -265 200 -121 560 -337 799 -481 239 -145 458 -270 485
-280 159 -54 356 -6 467 114 25 26 231 357 487 781 602 996 556 913 568 1041
10 116 -32 238 -113 328 -51 57 -54 58 -684 439 -949 574 -1012 611 -1075 627
-60 15 -155 18 -210 6z m265 -723 c57 -30 83 -76 77 -139 -13 -147 -201 -190
-274 -63 -28 49 -29 86 -2 140 14 30 32 48 62 63 54 27 82 26 137 -1z m1038
-625 c68 -51 87 -116 53 -186 -72 -149 -292 -91 -278 74 7 86 73 143 156 135
24 -2 55 -12 69 -23z m-823 -204 c42 -25 65 -69 65 -124 0 -84 -49 -136 -136
-143 -92 -8 -158 53 -156 144 0 44 20 92 46 113 27 22 89 40 121 34 17 -3 44
-14 60 -24z m-841 -193 c75 -31 109 -140 64 -205 -37 -55 -73 -76 -128 -76
-84 0 -145 63 -145 148 0 111 103 177 209 133z m1036 -625 c51 -27 84 -96 75
-153 -10 -59 -64 -113 -123 -123 -57 -9 -128 25 -154 75 -69 132 71 272 202
201z"/>
</g>
</svg>
